<?xml version="1.0" standalone="no"?><!DOCTYPE svg PUBLIC "-//W3C//DTD SVG 1.1//EN"
        "http://www.w3.org/Graphics/SVG/1.1/DTD/svg11.dtd">
<svg t="1630977492434" class="icon" viewBox="0 0 1024 1024" version="1.1" xmlns="http://www.w3.org/2000/svg"
     p-id="14835" xmlns:xlink="http://www.w3.org/1999/xlink" width="32" height="32">
    <defs>
        <style type="text/css"></style>
    </defs>
    <path d="M974.00547 967.39343L694.834457 643.915973c130.349584-141.025575 136.925532-361.142986 8.539348-509.913886A382.790921 382.790921 0 0 0 413.339123 1.270436a382.863104 382.863104 0 0 0-250.052051 93.044974C85.848245 161.143212 39.073114 254.130438 31.573213 356.140646s25.170506 200.844325 92.005527 278.268715a382.805357 382.805357 0 0 0 290.056337 132.753306 382.776484 382.776484 0 0 0 215.605921-66.676216l279.192669 323.499112 65.571803-56.592133zM189.150543 577.824447c-51.712505-59.919808-76.998506-136.391372-71.194925-215.331623s41.99656-150.885887 101.923587-202.605611a296.242493 296.242493 0 0 1 193.459918-72.003384 296.242493 296.242493 0 0 1 224.462879 102.710391c106.752686 123.708671 92.987227 311.198985-30.699789 417.944452a296.293021 296.293021 0 0 1-417.95167-30.714225z"
          fill="#F88BC7" p-id="14836"></path>
</svg>
